<?xml version="1.0" encoding="utf-8"?>
<!-- Generator: Adobe Illustrator 26.3.1, SVG Export Plug-In . SVG Version: 6.00 Build 0)  -->
<svg version="1.1" id="Layer_1" xmlns="http://www.w3.org/2000/svg" xmlns:xlink="http://www.w3.org/1999/xlink" x="0px" y="0px"
	 viewBox="0 0 255.1 255.1" style="enable-background:new 0 0 255.1 255.1;" xml:space="preserve">
<style type="text/css">
	.st0{fill:#FFFFFF;}
</style>
<circle cx="128" cy="127.6" r="127.6"/>
<path class="st0" d="M128,110.5c4,0,7.8,1.4,10.9,3.9s5.2,6,5.9,9.9c0.8,3.9,0.2,7.9-1.7,11.4c-1.9,3.5-4.9,6.2-8.6,7.8
	c-3.7,1.5-7.8,1.7-11.6,0.5s-7.1-3.6-9.3-6.9s-3.2-7.3-2.8-11.2s2.2-7.6,5-10.5c1.6-1.6,3.5-2.9,5.6-3.7
	C123.5,110.9,125.8,110.4,128,110.5"/>
<path class="st0" d="M172.1,115.8h36.9c0.3,0,0.6,0.1,0.9,0.3c0.2,0.2,0.4,0.5,0.5,0.8c0.9,4.6,3.3,22.4-11.7,22.4h-26.3
	C157.8,139.3,157.5,115.8,172.1,115.8"/>
<path class="st0" d="M83.9,139.3H47.1c-0.3,0-0.6-0.1-0.9-0.3c-0.2-0.2-0.4-0.5-0.5-0.8c-0.9-4.6-3.3-22.4,11.7-22.4h26.4
	C98.3,115.8,98.6,139.3,83.9,139.3z"/>
<path class="st0" d="M150.8,88.1L176.9,62c0.2-0.2,0.5-0.4,0.9-0.4c0.3,0,0.6,0.1,0.9,0.2c4,2.7,18.1,13.5,7.6,24.1l-18.7,18.6
	C157.3,114.8,140.5,98.4,150.8,88.1"/>
<path class="st0" d="M105.2,167l-26.1,26.1c-0.2,0.2-0.5,0.4-0.9,0.4s-0.6,0-0.9-0.2c-3.9-2.7-18.1-13.5-7.6-24.1l18.7-18.6
	C98.7,140.3,115.5,156.7,105.2,167L105.2,167z"/>
<path class="st0" d="M116.2,83.5V46.6c0-0.3,0.1-0.6,0.3-0.9c0.2-0.2,0.5-0.4,0.8-0.5c4.6-0.9,22.4-3.3,22.4,11.7v26.3
	C139.8,97.8,116.2,98.1,116.2,83.5"/>
<path class="st0" d="M139.8,171.6v36.9c0,0.3-0.1,0.6-0.3,0.9s-0.5,0.4-0.8,0.5c-4.6,0.9-22.4,3.3-22.4-11.7v-26.4
	C116.2,157.3,139.8,156.9,139.8,171.6L139.8,171.6z"/>
<path class="st0" d="M88.5,104.7L62.4,78.6c-0.2-0.2-0.4-0.5-0.4-0.9c0-0.3,0.1-0.6,0.2-0.9c2.7-4,13.5-18.1,24.1-7.6L105,88
	C115.3,98.2,98.8,115.1,88.5,104.7"/>
<path class="st0" d="M167.5,150.4l26.1,26.1c0.2,0.2,0.4,0.5,0.4,0.9c0,0.3,0,0.6-0.2,0.9c-2.7,4-13.5,18.1-24.1,7.6L151,167.2
	C140.7,156.9,157.2,140,167.5,150.4"/>
</svg>
